<svg xmlns="http://www.w3.org/2000/svg" width="18.836" height="16.96" viewBox="0 0 18.836 16.96"><g transform="translate(0 -16.896)"><g transform="translate(0 16.896)"><path d="M17.3,18.491a5.26,5.26,0,0,0-7.544,0l-.333.34-.333-.34a5.267,5.267,0,0,0-7.279-.259q-.139.125-.267.259a5.471,5.471,0,0,0,0,7.611l7.39,7.551a.688.688,0,0,0,.952.025l.026-.025L17.3,26.1A5.47,5.47,0,0,0,17.3,18.491ZM16.321,25.2h0l-6.9,7.053L2.517,25.2a4.18,4.18,0,0,1,0-5.815,3.891,3.891,0,0,1,5.376-.21q.112.1.216.21l.821.839a.709.709,0,0,0,.977,0l.821-.838a3.891,3.891,0,0,1,5.376-.21q.112.1.216.21A4.143,4.143,0,0,1,16.321,25.2Z" transform="translate(0 -16.896)" fill="#fff"/></g></g></svg>